<?xml version="1.0" encoding="utf-8"?>
<!-- Generator: Adobe Illustrator 25.4.1, SVG Export Plug-In . SVG Version: 6.00 Build 0)  -->
<svg version="1.1" id="레이어_1" xmlns="http://www.w3.org/2000/svg" xmlns:xlink="http://www.w3.org/1999/xlink" x="0px"
	 y="0px" viewBox="0 0 107 50" style="enable-background:new 0 0 107 50;" xml:space="preserve">
<path d="M37.8,14.9h-3.1V2.7h-4.5V0.1h12v2.7h-4.5L37.8,14.9z M46.5,8.2v6.6h-3.1V0.1h3.1v5.6h5.8V0.1h3.1v14.8h-3.1V8.2H46.5z
	 M67.3,2.7h-7.8v3.1h6.9v2.6h-6.9v3.9h7.8v2.6H56.7V0.1h10.6V2.7z M9.5,17.2h2.9V32H9.3L3.2,21.4l0,0V32H0.3V17.2h3.2l5.9,10.3h0.1
	V17.2z M20.9,16.8c2,0,7.1,0.9,7.1,7.8s-5.2,7.8-7.1,7.8s-7.1-0.9-7.1-7.8S18.9,16.8,20.9,16.8 M20.9,29.7c1.6,0,4-1,4-5.2
	s-2.3-5.2-4-5.2s-4,1-4,5.2S19.2,29.7,20.9,29.7 M49.8,32h-3.1V19.8h-4.5v-2.6h12.1v2.6h-4.5C49.8,19.8,49.8,32,49.8,32z M58.5,25.3
	V32h-3.1V17.2h3.1v5.6h5.7v-5.6h3.1V32h-3.1v-6.6h-5.7V25.3z M29.3,17.2h7.5c3.9,0,4.7,2.9,4.7,4.2c0,1.6-0.9,3-2.3,3.5
	c1.2,0.5,1.9,1,1.9,3.8c0,2.2,0,2.7,0.6,2.9V32h-3.4c-0.2-0.7-0.3-1.4-0.3-3c0-2-0.1-2.8-2.4-2.8h-3.2V32h-3
	C29.4,32,29.3,17.2,29.3,17.2z M35.9,23.7c1.6,0,2.4-0.6,2.4-2c0-0.8-0.4-1.9-2.2-1.9h-3.8v3.9C32.3,23.7,35.9,23.7,35.9,23.7z
	 M22.1,49.5H19V34.3h10.8V37h-7.7v3.4h6.7v2.7h-6.7C22.1,43.1,22.1,49.5,22.1,49.5z M31.2,49.5h-3.4l5.4-15.2H37l5.4,15.2h-3.5
	l-1-3.1h-5.7L31.2,49.5z M33.1,43.8H37l-1.9-6H35L33.1,43.8z M52,39.4c-0.3-0.9-0.7-2.6-3.4-2.6c-1.5,0-3.8,1-3.8,5.3
	c0,2.7,1.1,5.2,3.8,5.2c1.8,0,3-1,3.4-2.9h3.2c-0.6,3.3-2.8,5.6-6.6,5.6c-4,0-6.9-2.7-6.9-8s3.1-8,7-8c4.5,0,6.4,3.1,6.5,5.4H52
	C52,39.3,52,39.4,52,39.4z M67.4,37h-8v3.2h7.1v2.7h-7.1v3.9h8v2.7H56.5V34.3h10.9V37z M77.5,48.6v-7.8c0-3.5-2.9-6.4-6.4-6.4h-0.7
	v15.2h7.1V48.6z M106.7,48.6v-13C106.7,16,90.7,0,71.1,0h-0.4h0.1h-0.4v14.9h1c11.5,0.2,21,9.6,21.1,21.1v13.5h14.1v-0.9H106.7z"/>
<path d="M90.3,49.1V36.2C90.2,26,82,17.6,71.9,17.2h-1.2h0.1h-0.4V32h0.7c4.8,0,8.6,3.9,8.6,8.6v8.8h10.6L90.3,49.1L90.3,49.1z"/>
</svg>
